<?xml version="1.0" encoding="utf-8"?><svg version="1.1" id="Layer_1" xmlns="http://www.w3.org/2000/svg" xmlns:xlink="http://www.w3.org/1999/xlink" x="0px" y="0px" viewBox="0 0 115.28 122.88" style="enable-background:new 0 0 115.28 122.88" xml:space="preserve"><style type="text/css">.st0{fill-rule:evenodd;clip-rule:evenodd;}</style><g><path class="st0" d="M25.38,57h64.88V37.34H69.59c-2.17,0-5.19-1.17-6.62-2.6c-1.43-1.43-2.3-4.01-2.3-6.17V7.64l0,0H8.15 c-0.18,0-0.32,0.09-0.41,0.18C7.59,7.92,7.55,8.05,7.55,8.24v106.45c0,0.14,0.09,0.32,0.18,0.41c0.09,0.14,0.28,0.18,0.41,0.18 c22.78,0,58.09,0,81.51,0c0.18,0,0.17-0.09,0.27-0.18c0.14-0.09,0.33-0.28,0.33-0.41v-11.16H25.38c-4.14,0-7.56-3.4-7.56-7.56 V64.55C17.82,60.4,21.22,57,25.38,57L25.38,57z M39.94,68.46h7.81l5.45,17.4l5.37-17.4h7.58l-8.98,24.18h-8.09L39.94,68.46 L39.94,68.46z M68.67,68.46h14c2.33,0,4.12,0.58,5.37,1.73c1.25,1.15,1.87,2.58,1.87,4.29c0,1.43-0.44,2.66-1.34,3.68 c-0.59,0.69-1.46,1.22-2.61,1.62c1.74,0.42,3.01,1.13,3.83,2.15c0.82,1.02,1.23,2.3,1.23,3.83c0,1.25-0.29,2.38-0.87,3.38 c-0.59,1-1.38,1.79-2.39,2.38c-0.63,0.36-1.58,0.62-2.84,0.79c-1.68,0.22-2.8,0.33-3.35,0.33h-12.9V68.46L68.67,68.46z M76.2,77.95 h3.26c1.17,0,1.98-0.2,2.44-0.6c0.46-0.41,0.69-0.99,0.69-1.74c0-0.7-0.23-1.26-0.69-1.65c-0.46-0.4-1.26-0.6-2.39-0.6H76.2V77.95 L76.2,77.95z M76.2,87.43h3.81c1.29,0,2.2-0.23,2.72-0.69s0.79-1.06,0.79-1.83c0-0.71-0.26-1.29-0.78-1.72 c-0.52-0.43-1.44-0.65-2.75-0.65H76.2V87.43L76.2,87.43z M97.79,57h9.93c4.16,0,7.56,3.41,7.56,7.56v31.42 c0,4.15-3.41,7.56-7.56,7.56h-9.93v13.55c0,1.61-0.65,3.04-1.7,4.1c-1.06,1.06-2.49,1.7-4.1,1.7c-29.44,0-56.59,0-86.18,0 c-1.61,0-3.04-0.64-4.1-1.7c-1.06-1.06-1.7-2.49-1.7-4.1V5.85c0-1.61,0.65-3.04,1.7-4.1c1.06-1.06,2.53-1.7,4.1-1.7h58.72 C64.66,0,64.8,0,64.94,0c0.64,0,1.29,0.28,1.75,0.69h0.09c0.09,0.05,0.14,0.09,0.23,0.18l29.99,30.36c0.51,0.51,0.88,1.2,0.88,1.98 c0,0.23-0.05,0.41-0.09,0.65V57L97.79,57z M67.52,27.97V8.94l21.43,21.7H70.19c-0.74,0-1.38-0.32-1.89-0.78 C67.84,29.4,67.52,28.71,67.52,27.97L67.52,27.97z"/></g></svg>